<svg id="visual" viewBox="0 0 900 600" width="900" height="600" xmlns="http://www.w3.org/2000/svg" xmlns:xlink="http://www.w3.org/1999/xlink" version="1.1"><rect x="0" y="0" width="900" height="600" fill="#001220"></rect><defs><linearGradient id="grad1_0" x1="33.3%" y1="0%" x2="100%" y2="100%"><stop offset="20%" stop-color="#fbae3c" stop-opacity="1"></stop><stop offset="80%" stop-color="#fbae3c" stop-opacity="1"></stop></linearGradient></defs><defs><linearGradient id="grad1_1" x1="33.3%" y1="0%" x2="100%" y2="100%"><stop offset="20%" stop-color="#fbae3c" stop-opacity="1"></stop><stop offset="80%" stop-color="#96446e" stop-opacity="1"></stop></linearGradient></defs><defs><linearGradient id="grad1_2" x1="33.3%" y1="0%" x2="100%" y2="100%"><stop offset="20%" stop-color="#001220" stop-opacity="1"></stop><stop offset="80%" stop-color="#96446e" stop-opacity="1"></stop></linearGradient></defs><defs><linearGradient id="grad2_0" x1="0%" y1="0%" x2="66.7%" y2="100%"><stop offset="20%" stop-color="#fbae3c" stop-opacity="1"></stop><stop offset="80%" stop-color="#fbae3c" stop-opacity="1"></stop></linearGradient></defs><defs><linearGradient id="grad2_1" x1="0%" y1="0%" x2="66.7%" y2="100%"><stop offset="20%" stop-color="#96446e" stop-opacity="1"></stop><stop offset="80%" stop-color="#fbae3c" stop-opacity="1"></stop></linearGradient></defs><defs><linearGradient id="grad2_2" x1="0%" y1="0%" x2="66.7%" y2="100%"><stop offset="20%" stop-color="#96446e" stop-opacity="1"></stop><stop offset="80%" stop-color="#001220" stop-opacity="1"></stop></linearGradient></defs><g transform="translate(900, 0)"><path d="M0 486.7C-38.8 445.5 -77.6 404.3 -127.6 392.8C-177.6 381.3 -238.7 399.4 -275.7 379.4C-312.6 359.4 -325.4 301.3 -356.8 259.2C-388.2 217.1 -438.2 191 -462.9 150.4C-487.7 109.9 -487.2 54.9 -486.7 0L0 0Z" fill="#3d3056"></path><path d="M0 324.5C-25.9 297 -51.8 269.5 -85.1 261.9C-118.4 254.2 -159.1 266.3 -183.8 253C-208.4 239.6 -216.9 200.9 -237.9 172.8C-258.8 144.7 -292.1 127.3 -308.6 100.3C-325.1 73.3 -324.8 36.6 -324.5 0L0 0Z" fill="#e1685e"></path><path d="M0 162.2C-12.9 148.5 -25.9 134.8 -42.5 130.9C-59.2 127.1 -79.6 133.1 -91.9 126.5C-104.2 119.8 -108.5 100.4 -118.9 86.4C-129.4 72.4 -146.1 63.7 -154.3 50.1C-162.6 36.6 -162.4 18.3 -162.2 0L0 0Z" fill="#fbae3c"></path></g><g transform="translate(0, 600)"><path d="M0 -486.7C58.4 -493.3 116.8 -499.8 150.4 -462.9C184.1 -426.1 193 -346 223.9 -308.2C254.9 -270.5 307.8 -275.2 352.7 -256.3C397.6 -237.3 434.6 -194.7 455.6 -148C476.6 -101.4 481.7 -50.7 486.7 0L0 0Z" fill="#3d3056"></path><path d="M0 -324.5C38.9 -328.8 77.8 -333.2 100.3 -308.6C122.7 -284.1 128.7 -230.6 149.3 -205.5C169.9 -180.3 205.2 -183.5 235.2 -170.8C265.1 -158.2 289.7 -129.8 303.7 -98.7C317.7 -67.6 321.1 -33.8 324.5 0L0 0Z" fill="#e1685e"></path><path d="M0 -162.2C19.5 -164.4 38.9 -166.6 50.1 -154.3C61.4 -142 64.3 -115.3 74.6 -102.7C85 -90.2 102.6 -91.7 117.6 -85.4C132.5 -79.1 144.9 -64.9 151.9 -49.3C158.9 -33.8 160.6 -16.9 162.2 0L0 0Z" fill="#fbae3c"></path></g></svg>